<svg xmlns="http://www.w3.org/2000/svg" width="242.796" height="59.582" viewBox="0 0 242.796 59.582"><g transform="translate(-2836 395.936)"><g transform="translate(7837 -9378.932)"><path d="M1.591,6.975H4.164a.371.371,0,0,0,.418-.42V-8.656H4.89L21.247,6.666c.224.2.335.308.588.308h3.243a.371.371,0,0,0,.42-.42V-12.179a.371.371,0,0,0-.1-.315.371.371,0,0,0-.315-.1H22.506a.371.371,0,0,0-.315.1.371.371,0,0,0-.1.315V3.032h-.308L5.421-12.29c-.224-.2-.335-.308-.588-.308H1.591a.371.371,0,0,0-.315.1.371.371,0,0,0-.1.315V6.555a.371.371,0,0,0,.42.42Zm28.664,0h2.573a.371.371,0,0,0,.42-.42V-1.666H51.78a.371.371,0,0,0,.315-.1.371.371,0,0,0,.1-.315v-2.18a.371.371,0,0,0-.1-.315.371.371,0,0,0-.315-.1H33.242V-9.579H52.059a.371.371,0,0,0,.315-.1.371.371,0,0,0,.1-.315V-12.18a.371.371,0,0,0-.1-.315.371.371,0,0,0-.315-.1H30.25a.371.371,0,0,0-.315.1.371.371,0,0,0-.1.315V6.555a.371.371,0,0,0,.42.42ZM56.392-9.579H66.6V6.555a.371.371,0,0,0,.42.42h2.517a.371.371,0,0,0,.42-.42V-9.579H80.16a.371.371,0,0,0,.315-.1.371.371,0,0,0,.1-.315V-12.18a.371.371,0,0,0-.1-.315.371.371,0,0,0-.315-.1H56.392a.371.371,0,0,0-.315.1.371.371,0,0,0-.1.315V-10a.371.371,0,0,0,.1.315.371.371,0,0,0,.315.1Z" transform="translate(-4838.788 9035.6)" fill="#dcb533"/><g transform="translate(-5001 9023.002)"><g transform="translate(0 0)"><path d="M1850.429,26.219l-2.919-3.507a.634.634,0,0,1-.056-.09c.038-.07.093-.05.143-.052h30.176c.1-.1.066-.2.067-.3v-3.1c0-.079-.009-.156-.013-.248a1.533,1.533,0,0,0-.179-.029h-27.031a4.241,4.241,0,0,1-.717-.047,2.452,2.452,0,0,1-1.257-.639,3.724,3.724,0,0,1-1.216-2.416,7.036,7.036,0,0,1-.037-.745V11.632a4.7,4.7,0,0,1,.1-1,3.691,3.691,0,0,1,1.29-2.12,2.484,2.484,0,0,1,1.62-.583h30.071a1.308,1.308,0,0,1,.345.016.232.232,0,0,1-.007.072l-2.947,3.554c-.089,0-.168.013-.248.014h-26.739a1.238,1.238,0,0,0-.43.029,7.077,7.077,0,0,0-.018.887v1.816c0,.3-.01.592.01.907.07.009.125.02.181.023h27.03a4.545,4.545,0,0,1,.684.046,2.413,2.413,0,0,1,1.243.6,3.686,3.686,0,0,1,1.219,2.127,3.863,3.863,0,0,1,.074.708q.01,2.006,0,4.013a3.71,3.71,0,0,1-.527,1.9,3.625,3.625,0,0,1-.8.951,2.519,2.519,0,0,1-1.668.615h-27.454Z" transform="translate(-1732.637 -7.432)" fill="#dcb533"/><path d="M1279.71,8c-.143.236-2.74,3.378-3.02,3.657h-27.22a.987.987,0,0,0-.144.026.437.437,0,0,0-.024.095v3.417a.445.445,0,0,0,.026.1c.054,0,.112.017.168.019h14.6a1.653,1.653,0,0,1,.34.011.148.148,0,0,1,.017.044.046.046,0,0,1-.012.027l-2.951,3.562h-11.771c-.125,0-.255,0-.4.007a1.056,1.056,0,0,0-.026.156v3.362a.755.755,0,0,0,.014.1,1.048,1.048,0,0,0,.162.033h30.18c.037.113-.044.159-.09.215q-.74.9-1.484,1.786l-1.158,1.4c-.07.083-.143.165-.218.254h-27.329a2.734,2.734,0,0,1-2.13-.952,3.836,3.836,0,0,1-.986-2.436V11.672a4.263,4.263,0,0,1,.3-1.655,3.7,3.7,0,0,1,.932-1.329A2.559,2.559,0,0,1,1249.312,8Z" transform="translate(-1168.85 -7.498)" fill="#dcb533"/><path d="M683.475,18.906a4.585,4.585,0,0,0,.794.036h.774c.258,0,.533-.011.818.01.01.069.022.125.024.181v7.023c-.093.052-.113-.027-.143-.062q-.821-.982-1.64-1.966c-.368-.443-.732-.889-1.108-1.324a.609.609,0,0,1-.153-.43V19.3a.8.8,0,0,0-.029-.332,1.125,1.125,0,0,0-.143-.023c-.691-.03-20.863-.009-21.112.023a1.132,1.132,0,0,0-.033.161v7.021c-.119.016-.143-.07-.2-.125q-.793-.946-1.576-1.9c-.373-.45-.745-.9-1.125-1.349a.573.573,0,0,1-.143-.4V19a.421.421,0,0,0-.3-.056h-2.293a1.421,1.421,0,0,0-.178,0,.44.44,0,0,1-.43-.195c-.543-.671-1.1-1.33-1.654-1.994L652.6,15.522c-.047-.057-.116-.107-.12-.186.014-.02.019-.029.026-.033a.072.072,0,0,1,.029,0h30.252l.046-.014a.8.8,0,0,0,.032-.158v-3.3a1.283,1.283,0,0,0-.019-.152,1.193,1.193,0,0,0-.151-.027H655.858a1,1,0,0,1-.41-.032c-.116-.056-.195-.191-.287-.3q-1.277-1.534-2.55-3.068l-.153-.209c.036-.076.092-.056.143-.062h30.068a4.4,4.4,0,0,1,.652.039,2.445,2.445,0,0,1,1.27.611,3.7,3.7,0,0,1,1.234,2.217,4.837,4.837,0,0,1,.062.77V15.35a4.216,4.216,0,0,1-.186,1.26,3.713,3.713,0,0,1-1.016,1.621,3.071,3.071,0,0,1-1.21.675Z" transform="translate(-611.935 -7.471)" fill="#dcb533"/><path d="M0,19.511c.118-.08.2-.143.287-.2l5.016-3.2L30.24.2a1.324,1.324,0,0,0,.118-.08A.684.684,0,0,1,30.8-.014H36.26c.089,0,.176.009.274.013.011.072.026.128.03.186s0,.143,0,.209V19.141a1.694,1.694,0,0,1-.017.373c-.241.037-4.013.044-4.353.01a1.326,1.326,0,0,1-.029-.163V12.014c0-.118,0-.234-.009-.367-.1-.009-.172-.021-.248-.021l-2.861-.01-2.712-.009a2.636,2.636,0,0,1-.275-.011c.079-.08.12-.13.169-.171l2.6-2.181c.5-.414.993-.826,1.482-1.243a.559.559,0,0,1,.4-.143c.367.01.735,0,1.1,0,.1,0,.2,0,.311-.009a.989.989,0,0,0,.034-.176q0-.4,0-.8V2.7c-.082-.093-.166-.069-.242-.07a1.118,1.118,0,0,0-.937.267L5.655,19.33a.916.916,0,0,1-.745.216H.351A.846.846,0,0,1,0,19.511Z" transform="translate(0 0.015)" fill="#dcb533"/></g></g></g><path d="M-78.4.28h-3.145q-.824,0-.824-.786V-19.261a.364.364,0,0,0-.412-.412h-4.268a.7.7,0,0,1-.786-.786V-23a.7.7,0,0,1,.786-.786H-72.9a.7.7,0,0,1,.786.786v2.546a.7.7,0,0,1-.786.786h-4.268q-.449,0-.449.412V-.506A.7.7,0,0,1-78.4.28Zm13.1,0h-3.182a.7.7,0,0,1-.786-.786V-23a.7.7,0,0,1,.786-.786H-65.3a.7.7,0,0,1,.786.786v8.8q0,.412.449.412h6.327a.364.364,0,0,0,.412-.412V-23a.7.7,0,0,1,.786-.786h3.182a.7.7,0,0,1,.786.786v22.5A.7.7,0,0,1-53.36.28h-3.182a.7.7,0,0,1-.786-.786v-8.76a.364.364,0,0,0-.412-.412h-6.327q-.449,0-.449.412v8.76A.7.7,0,0,1-65.3.28Zm30.623,0H-46.921a.7.7,0,0,1-.786-.786V-23a.7.7,0,0,1,.786-.786h12.242q.749,0,.749.786v2.546q0,.786-.749.786H-42.5q-.449,0-.449.412v4.867q0,.412.449.412h6.4a.7.7,0,0,1,.786.786v2.546a.7.7,0,0,1-.786.786h-6.4q-.449,0-.449.412v5.2q0,.412.449.412h7.824q.749,0,.749.786V-.506Q-33.93.28-34.679.28Zm17.108,0h-3.182a.7.7,0,0,1-.786-.786V-23a.7.7,0,0,1,.786-.786h8.91a6.256,6.256,0,0,1,4.567,1.61,6.044,6.044,0,0,1,1.647,4.53v2.92q0,4.23-3.332,5.615v.15L-4.955-.618q.337.9-.636.9H-8.624A2.32,2.32,0,0,1-9.6.131a1.113,1.113,0,0,1-.487-.636l-3.744-8.086h-2.508q-.449,0-.449.412V-.506A.7.7,0,0,1-17.571.28Zm1.2-12.691H-12.7a2.577,2.577,0,0,0,1.759-.505,2.093,2.093,0,0,0,.562-1.628v-2.92a2.211,2.211,0,0,0-.562-1.685,2.513,2.513,0,0,0-1.759-.524h-3.669a.364.364,0,0,0-.412.412v6.439A.364.364,0,0,0-16.373-12.41ZM3.88-23v22.5A.7.7,0,0,1,3.094.28H-.088A.7.7,0,0,1-.874-.506V-23a.7.7,0,0,1,.786-.786H3.094A.7.7,0,0,1,3.88-23ZM8.335-5.859v-.749a.7.7,0,0,1,.786-.786H12.3a.7.7,0,0,1,.786.786v.3a2.628,2.628,0,0,0,.562,1.947,3.051,3.051,0,0,0,2.059.524h1.759a2.913,2.913,0,0,0,2.04-.562,2.9,2.9,0,0,0,.58-2.1v-.449a1.877,1.877,0,0,0-.88-1.666A4.637,4.637,0,0,0,17.02-9.3a23.668,23.668,0,0,1-2.826-.431,18.279,18.279,0,0,1-2.826-.824,4.435,4.435,0,0,1-2.19-1.984,7.35,7.35,0,0,1-.88-3.8v-1.31a6.044,6.044,0,0,1,1.647-4.53,6.256,6.256,0,0,1,4.567-1.61h3.744a6.309,6.309,0,0,1,4.6,1.61,6.044,6.044,0,0,1,1.647,4.53v.711a.7.7,0,0,1-.786.786H20.539a.7.7,0,0,1-.786-.786v-.225a2.692,2.692,0,0,0-.562-1.984,3.051,3.051,0,0,0-2.059-.524h-1.46a2.831,2.831,0,0,0-2.078.58,3.417,3.417,0,0,0-.543,2.265v.711q0,1.759,3.07,2.022a19,19,0,0,1,5.653,1.273,4.794,4.794,0,0,1,2.19,2,6.984,6.984,0,0,1,.88,3.687v1.273A6.044,6.044,0,0,1,23.2-1.329,6.256,6.256,0,0,1,18.63.28H14.549a6.256,6.256,0,0,1-4.567-1.61A6.044,6.044,0,0,1,8.335-5.859ZM42.139.28H29.9a.7.7,0,0,1-.786-.786V-23a.7.7,0,0,1,.786-.786H42.139q.749,0,.749.786v2.546q0,.786-.749.786H34.315q-.449,0-.449.412v4.867q0,.412.449.412h6.4a.7.7,0,0,1,.786.786v2.546a.7.7,0,0,1-.786.786h-6.4q-.449,0-.449.412v5.2q0,.412.449.412h7.824q.749,0,.749.786V-.506Q42.888.28,42.139.28ZM61.831-3.838h2.658a2.355,2.355,0,0,0,1.7-.505,2.355,2.355,0,0,0,.505-1.7V-17.464a2.355,2.355,0,0,0-.505-1.7,2.355,2.355,0,0,0-1.7-.505H61.831a2.284,2.284,0,0,0-1.685.505,2.416,2.416,0,0,0-.487,1.7V-6.046a2.416,2.416,0,0,0,.487,1.7A2.284,2.284,0,0,0,61.831-3.838ZM65.275.28H61.082a6.265,6.265,0,0,1-4.567-1.572,6.048,6.048,0,0,1-1.61-4.53V-17.689a6.048,6.048,0,0,1,1.61-4.53,6.265,6.265,0,0,1,4.567-1.572h4.193a6.265,6.265,0,0,1,4.567,1.572,6.048,6.048,0,0,1,1.61,4.53V-5.822a6.048,6.048,0,0,1-1.61,4.53A6.265,6.265,0,0,1,65.275.28Zm14.637,0H76.73a.7.7,0,0,1-.786-.786V-23a.7.7,0,0,1,.786-.786H88.672q.749,0,.749.786v2.546q0,.786-.749.786H81.148q-.449,0-.449.412v5.8a.4.4,0,0,0,.449.449h6.4a.7.7,0,0,1,.786.786v2.508q0,.824-.786.824h-6.4q-.449,0-.449.412V-.506A.7.7,0,0,1,79.912.28Z" transform="translate(2923.838 -372.145)" fill="#fff"/></g></svg>