<svg xmlns="http://www.w3.org/2000/svg" width="387.259" height="24.072" viewBox="0 0 387.259 24.072"><g transform="translate(-2666 235.936)"><path d="M-63.324-23.791h5.541A.7.7,0,0,1-57-23v22.5a.7.7,0,0,1-.786.786h-3.07a.7.7,0,0,1-.786-.786V-18.25h-.15L-65.608-5.709a.919.919,0,0,1-.936.749h-3.145a.919.919,0,0,1-.936-.749l-3.893-12.579h-.15V-.505a.949.949,0,0,1-.15.618.864.864,0,0,1-.636.168h-3.07a.7.7,0,0,1-.786-.786V-23a.7.7,0,0,1,.786-.786h5.578a.705.705,0,0,1,.711.524l3.968,13.215h.225l4.006-13.215A.637.637,0,0,1-63.324-23.791ZM-47.189-23v22.5a.7.7,0,0,1-.786.786h-3.182a.7.7,0,0,1-.786-.786V-23a.7.7,0,0,1,.786-.786h3.182A.7.7,0,0,1-47.189-23ZM-38.241.281h-3.107a.7.7,0,0,1-.786-.786V-23a.7.7,0,0,1,.786-.786h2.808a1.056,1.056,0,0,1,1.048.524L-29.93-9.078h.15V-23a.7.7,0,0,1,.786-.786h3.107A.7.7,0,0,1-25.1-23v22.5a.7.7,0,0,1-.786.786H-28.62a1.252,1.252,0,0,1-1.2-.749l-7.487-13.927h-.15V-.505A.7.7,0,0,1-38.241.281Zm25.457,0h-3.145q-.824,0-.824-.786V-19.261a.364.364,0,0,0-.412-.412h-4.268a.7.7,0,0,1-.786-.786V-23a.7.7,0,0,1,.786-.786H-7.281A.7.7,0,0,1-6.494-23v2.546a.7.7,0,0,1-.786.786h-4.268q-.449,0-.449.412V-.505A.7.7,0,0,1-12.784.281Zm26.206,0H10.24a.7.7,0,0,1-.786-.786V-8.517L2.6-22.967a.563.563,0,0,1,.019-.58.574.574,0,0,1,.505-.243H7.1q.6,0,.9.786l3.744,9.1H12L15.668-23q.262-.786.9-.786h3.968a.634.634,0,0,1,.543.225.548.548,0,0,1-.019.6L14.208-8.517V-.505A.7.7,0,0,1,13.422.281ZM30.493-3.837h2.658a2.355,2.355,0,0,0,1.7-.505,2.355,2.355,0,0,0,.505-1.7V-17.464a2.355,2.355,0,0,0-.505-1.7,2.355,2.355,0,0,0-1.7-.505H30.493a2.284,2.284,0,0,0-1.685.505,2.416,2.416,0,0,0-.487,1.7V-6.046a2.416,2.416,0,0,0,.487,1.7A2.284,2.284,0,0,0,30.493-3.837ZM33.938.281H29.745a6.265,6.265,0,0,1-4.567-1.572,6.048,6.048,0,0,1-1.61-4.53V-17.689a6.048,6.048,0,0,1,1.61-4.53,6.265,6.265,0,0,1,4.567-1.572h4.193A6.265,6.265,0,0,1,38.5-22.219a6.048,6.048,0,0,1,1.61,4.53V-5.821a6.048,6.048,0,0,1-1.61,4.53A6.265,6.265,0,0,1,33.938.281ZM56.924-23.791h3.145q.824,0,.824.749V-5.821A6.02,6.02,0,0,1,59.264-1.31,6.233,6.233,0,0,1,54.715.281H50.6A6.265,6.265,0,0,1,46.03-1.291a6.048,6.048,0,0,1-1.61-4.53V-23a.7.7,0,0,1,.786-.786h3.182a.7.7,0,0,1,.786.786V-6.046a2.355,2.355,0,0,0,.505,1.7,2.294,2.294,0,0,0,1.666.505h2.583a2.355,2.355,0,0,0,1.7-.505,2.355,2.355,0,0,0,.505-1.7V-23A.7.7,0,0,1,56.924-23.791ZM69.54.281H66.358a.7.7,0,0,1-.786-.786V-23a.7.7,0,0,1,.786-.786h8.91a6.256,6.256,0,0,1,4.567,1.61,6.044,6.044,0,0,1,1.647,4.53v2.92q0,4.23-3.332,5.616v.15L82.156-.617q.337.9-.636.9H78.488a2.32,2.32,0,0,1-.973-.15,1.113,1.113,0,0,1-.487-.636L73.284-8.592H70.776q-.449,0-.449.412V-.505A.7.7,0,0,1,69.54.281Zm1.2-12.691h3.669a2.577,2.577,0,0,0,1.76-.505,2.093,2.093,0,0,0,.562-1.629v-2.92a2.212,2.212,0,0,0-.562-1.685,2.513,2.513,0,0,0-1.76-.524H70.738a.364.364,0,0,0-.412.412v6.439A.364.364,0,0,0,70.738-12.41Z" transform="translate(2745.31 -212.145)" fill="#fff"/><g transform="translate(-3.009 -24.9)"><path d="M1.543,4.755H3.824a.329.329,0,0,0,.371-.372V-9.1h.273l14.5,13.585c.2.174.3.273.521.273h2.876a.329.329,0,0,0,.372-.372V-12.227a.329.329,0,0,0-.093-.279.329.329,0,0,0-.279-.093H20.086a.329.329,0,0,0-.279.093.329.329,0,0,0-.093.279V1.259h-.273L4.938-12.326c-.2-.174-.3-.273-.521-.273H1.543a.329.329,0,0,0-.279.093.329.329,0,0,0-.093.279V4.382a.329.329,0,0,0,.372.372Zm25.414,0h2.281a.329.329,0,0,0,.372-.372V-2.906H46.041A.329.329,0,0,0,46.321-3a.329.329,0,0,0,.093-.279V-5.211a.329.329,0,0,0-.093-.279.329.329,0,0,0-.279-.093H29.6V-9.922H46.289a.329.329,0,0,0,.279-.093.329.329,0,0,0,.093-.279v-1.934a.329.329,0,0,0-.093-.279.329.329,0,0,0-.279-.093H26.953a.329.329,0,0,0-.279.093.329.329,0,0,0-.093.279V4.382a.329.329,0,0,0,.372.372ZM50.13-9.922h9.049v14.3a.329.329,0,0,0,.372.372h2.231a.329.329,0,0,0,.372-.372v-14.3H71.2a.329.329,0,0,0,.279-.093.329.329,0,0,0,.093-.279v-1.934a.329.329,0,0,0-.093-.279A.329.329,0,0,0,71.2-12.6H50.13a.329.329,0,0,0-.279.093.329.329,0,0,0-.093.279v1.934a.329.329,0,0,0,.093.279.329.329,0,0,0,.279.093Z" transform="translate(2984.688 -196.097)" fill="#dcb533"/><g transform="translate(2841 -208.695)"><g transform="translate(0 0)"><path d="M1850.084,24.144l-2.588-3.109a.554.554,0,0,1-.05-.08c.033-.062.083-.044.127-.046h26.755c.088-.085.059-.178.06-.262V17.9c0-.07-.008-.139-.011-.22a1.362,1.362,0,0,0-.159-.025h-23.967a3.761,3.761,0,0,1-.635-.042,2.174,2.174,0,0,1-1.115-.567,3.3,3.3,0,0,1-1.079-2.142,6.254,6.254,0,0,1-.033-.661V11.211a4.155,4.155,0,0,1,.087-.889,3.273,3.273,0,0,1,1.144-1.879,2.2,2.2,0,0,1,1.436-.517h26.661a1.16,1.16,0,0,1,.306.014.218.218,0,0,1-.006.064l-2.613,3.151c-.079,0-.149.011-.22.013h-23.708a1.1,1.1,0,0,0-.381.025,6.287,6.287,0,0,0-.016.787v1.61c0,.264-.009.525.009.8.062.008.11.018.16.02h23.965a4.029,4.029,0,0,1,.606.041,2.138,2.138,0,0,1,1.1.534A3.27,3.27,0,0,1,1877,16.873a3.431,3.431,0,0,1,.066.628q.009,1.779,0,3.558a3.287,3.287,0,0,1-.467,1.682,3.212,3.212,0,0,1-.71.844,2.233,2.233,0,0,1-1.479.545h-24.341Z" transform="translate(-1745.647 -7.487)" fill="#dcb533"/><path d="M1275.918,8c-.127.21-2.43,3-2.677,3.243h-24.134a.879.879,0,0,0-.127.023.39.39,0,0,0-.022.084v3.029a.406.406,0,0,0,.023.089c.048,0,.1.015.149.017h12.947a1.465,1.465,0,0,1,.3.01.127.127,0,0,1,.015.039.041.041,0,0,1-.01.024l-2.616,3.158h-10.436c-.11,0-.226,0-.352.006a.932.932,0,0,0-.023.139v2.981a.66.66,0,0,0,.013.093.933.933,0,0,0,.144.029h26.758c.033.1-.039.141-.08.191q-.656.794-1.315,1.583l-1.026,1.244c-.062.074-.127.146-.193.225h-24.231a2.424,2.424,0,0,1-1.888-.844,3.4,3.4,0,0,1-.874-2.16V11.256a3.774,3.774,0,0,1,.268-1.468,3.279,3.279,0,0,1,.826-1.178,2.269,2.269,0,0,1,1.611-.61Z" transform="translate(-1177.627 -7.555)" fill="#dcb533"/><path d="M679.958,17.668a4.065,4.065,0,0,0,.7.032h.686c.229,0,.473-.01.725.009.009.061.019.111.022.16V24.1c-.083.046-.1-.024-.127-.055q-.728-.87-1.454-1.743c-.327-.393-.649-.788-.982-1.174a.54.54,0,0,1-.136-.381V18.02a.713.713,0,0,0-.025-.295,1,1,0,0,0-.127-.02c-.613-.027-18.5-.008-18.719.02a1.009,1.009,0,0,0-.029.142v6.225c-.106.014-.127-.062-.174-.111q-.7-.839-1.4-1.682c-.33-.4-.661-.8-1-1.2a.508.508,0,0,1-.127-.357V17.753a.373.373,0,0,0-.269-.05H655.5a1.259,1.259,0,0,0-.158,0,.39.39,0,0,1-.381-.173c-.482-.595-.976-1.179-1.466-1.768l-.911-1.1c-.042-.051-.1-.1-.107-.165.013-.018.016-.025.023-.029a.064.064,0,0,1,.026,0h26.822l.041-.013a.7.7,0,0,0,.028-.14V11.4a1.1,1.1,0,0,0-.017-.135,1.055,1.055,0,0,0-.133-.024H655.472a.89.89,0,0,1-.364-.028c-.1-.05-.173-.169-.254-.263q-1.132-1.36-2.26-2.721l-.136-.186c.032-.067.081-.05.127-.055h26.659a3.9,3.9,0,0,1,.578.034,2.168,2.168,0,0,1,1.126.541,3.285,3.285,0,0,1,1.094,1.966,4.287,4.287,0,0,1,.055.682v3.3a3.736,3.736,0,0,1-.165,1.117,3.293,3.293,0,0,1-.9,1.437,2.724,2.724,0,0,1-1.073.6Z" transform="translate(-616.529 -7.53)" fill="#dcb533"/><path d="M0,17.3c.1-.071.179-.127.254-.177L4.7,14.28,26.812.177a1.173,1.173,0,0,0,.1-.071.606.606,0,0,1,.394-.119h4.839c.079,0,.156.008.243.011.01.064.023.113.027.165s0,.127,0,.186V16.969a1.5,1.5,0,0,1-.015.33c-.213.033-3.558.039-3.859.009a1.176,1.176,0,0,1-.025-.145V10.65c0-.1,0-.207-.008-.325-.085-.008-.152-.019-.22-.019L25.754,10.3l-2.4-.008a2.337,2.337,0,0,1-.244-.01c.07-.071.107-.116.15-.151l2.306-1.934c.441-.367.881-.732,1.314-1.1a.5.5,0,0,1,.357-.127c.325.009.652,0,.977,0,.086,0,.174,0,.276-.008a.877.877,0,0,0,.031-.156q0-.356,0-.713v-3.7c-.072-.083-.147-.061-.215-.062a.991.991,0,0,0-.831.236L5.014,17.137a.812.812,0,0,1-.661.192H.311A.75.75,0,0,1,0,17.3Z" transform="translate(0 0.015)" fill="#dcb533"/></g></g></g></g></svg>