<svg xmlns="http://www.w3.org/2000/svg" width="504.234" height="24.072" viewBox="0 0 504.234 24.072"><g transform="translate(-2547 299.936)"><g transform="translate(-5.009 -88.9)"><path d="M1.543,4.753H3.824a.329.329,0,0,0,.371-.372V-9.1h.273L18.968,4.48c.2.174.3.273.521.273h2.875a.329.329,0,0,0,.372-.372V-12.227a.329.329,0,0,0-.093-.279.329.329,0,0,0-.279-.093H20.084a.329.329,0,0,0-.279.093.329.329,0,0,0-.093.279V1.258h-.273L4.938-12.326c-.2-.174-.3-.273-.521-.273H1.543a.329.329,0,0,0-.279.093.329.329,0,0,0-.093.279V4.381a.329.329,0,0,0,.372.372Zm25.411,0h2.281a.329.329,0,0,0,.372-.372V-2.907H46.036A.329.329,0,0,0,46.315-3a.329.329,0,0,0,.093-.279V-5.212a.329.329,0,0,0-.093-.279.329.329,0,0,0-.279-.093H29.6V-9.922H46.284a.329.329,0,0,0,.279-.093.329.329,0,0,0,.093-.279v-1.934a.329.329,0,0,0-.093-.279.329.329,0,0,0-.279-.093H26.95a.329.329,0,0,0-.279.093.329.329,0,0,0-.093.279V4.381a.329.329,0,0,0,.372.372ZM50.125-9.922h9.048v14.3a.329.329,0,0,0,.372.372h2.231a.329.329,0,0,0,.372-.372v-14.3H71.2a.329.329,0,0,0,.279-.093.329.329,0,0,0,.093-.279v-1.934a.329.329,0,0,0-.093-.279A.329.329,0,0,0,71.2-12.6H50.125a.329.329,0,0,0-.279.093.329.329,0,0,0-.093.279v1.934a.329.329,0,0,0,.093.279.329.329,0,0,0,.279.093Z" transform="translate(2984.671 -196.097)" fill="#dcb533"/><g transform="translate(2841 -208.695)"><g transform="translate(0 0)"><path d="M1850.084,24.142l-2.588-3.109a.554.554,0,0,1-.05-.08c.033-.062.083-.044.127-.046h26.751c.088-.085.059-.178.06-.262V17.9c0-.07-.008-.138-.011-.22a1.354,1.354,0,0,0-.159-.025H1850.25a3.761,3.761,0,0,1-.635-.042,2.173,2.173,0,0,1-1.114-.567,3.3,3.3,0,0,1-1.078-2.142,6.253,6.253,0,0,1-.033-.661V11.211a4.146,4.146,0,0,1,.087-.889,3.272,3.272,0,0,1,1.144-1.879,2.2,2.2,0,0,1,1.436-.517h26.658a1.16,1.16,0,0,1,.306.014.218.218,0,0,1-.006.064l-2.612,3.151c-.079,0-.149.011-.22.013h-23.7a1.1,1.1,0,0,0-.381.025,6.286,6.286,0,0,0-.016.786v1.61c0,.264-.009.525.009.8.062.008.111.018.16.02h23.963a4.026,4.026,0,0,1,.606.041,2.137,2.137,0,0,1,1.1.533A3.269,3.269,0,0,1,1877,16.872a3.43,3.43,0,0,1,.066.628q.009,1.779,0,3.558a3.286,3.286,0,0,1-.467,1.682,3.212,3.212,0,0,1-.71.844,2.233,2.233,0,0,1-1.479.545h-24.339Z" transform="translate(-1745.659 -7.487)" fill="#dcb533"/><path d="M1275.914,8c-.127.21-2.429,2.995-2.677,3.242h-24.131a.878.878,0,0,0-.127.023.383.383,0,0,0-.021.084v3.029a.4.4,0,0,0,.023.089c.048,0,.1.015.148.017h12.946a1.466,1.466,0,0,1,.3.01.127.127,0,0,1,.015.039.042.042,0,0,1-.01.024l-2.616,3.157h-10.435c-.11,0-.226,0-.352.006a.916.916,0,0,0-.023.138V20.84a.66.66,0,0,0,.012.093.939.939,0,0,0,.144.029h26.755c.033.1-.04.141-.08.191q-.656.794-1.315,1.583l-1.026,1.244c-.062.074-.127.146-.193.225h-24.228a2.424,2.424,0,0,1-1.888-.844,3.4,3.4,0,0,1-.874-2.16V11.255a3.778,3.778,0,0,1,.268-1.467,3.277,3.277,0,0,1,.826-1.178,2.269,2.269,0,0,1,1.611-.61Z" transform="translate(-1177.635 -7.555)" fill="#dcb533"/><path d="M679.955,17.667a4.064,4.064,0,0,0,.7.032h.686c.229,0,.473-.01.725.009.009.061.019.111.022.16v6.226c-.083.046-.1-.024-.127-.055q-.728-.87-1.453-1.743c-.327-.393-.649-.788-.982-1.174a.54.54,0,0,1-.136-.381V18.019a.714.714,0,0,0-.025-.295,1.007,1.007,0,0,0-.127-.02c-.613-.027-18.5-.008-18.716.02a1.009,1.009,0,0,0-.029.142v6.224c-.105.014-.127-.062-.174-.111q-.7-.839-1.4-1.682c-.33-.4-.661-.8-1-1.2a.508.508,0,0,1-.127-.357V17.752a.373.373,0,0,0-.269-.05H655.5a1.257,1.257,0,0,0-.157,0,.39.39,0,0,1-.381-.173c-.482-.595-.976-1.179-1.466-1.767l-.911-1.1c-.042-.051-.1-.1-.107-.165.013-.018.016-.025.023-.029a.064.064,0,0,1,.026,0h26.818l.041-.013a.7.7,0,0,0,.028-.14V11.4a1.11,1.11,0,0,0-.017-.135,1.058,1.058,0,0,0-.133-.024H655.472a.889.889,0,0,1-.363-.028c-.1-.05-.173-.169-.254-.263q-1.132-1.359-2.26-2.72l-.136-.185c.032-.067.081-.05.127-.055h26.656a3.9,3.9,0,0,1,.578.034,2.168,2.168,0,0,1,1.126.541,3.285,3.285,0,0,1,1.094,1.966,4.286,4.286,0,0,1,.055.682v3.3a3.739,3.739,0,0,1-.165,1.117,3.293,3.293,0,0,1-.9,1.437,2.724,2.724,0,0,1-1.073.6Z" transform="translate(-616.533 -7.53)" fill="#dcb533"/><path d="M0,17.295c.1-.071.179-.127.254-.177L4.7,14.279,26.808.177a1.173,1.173,0,0,0,.1-.071.606.606,0,0,1,.394-.119h4.838c.079,0,.156.008.243.011.01.064.023.113.027.165s0,.127,0,.185V16.967a1.5,1.5,0,0,1-.015.33c-.213.033-3.558.039-3.859.009a1.175,1.175,0,0,1-.025-.145V10.649c0-.1,0-.207-.008-.325-.085-.008-.152-.019-.22-.019L25.751,10.3l-2.4-.008a2.337,2.337,0,0,1-.244-.01c.07-.071.107-.116.15-.151L25.56,8.193c.441-.367.88-.732,1.314-1.1a.5.5,0,0,1,.357-.127c.325.009.652,0,.977,0,.086,0,.174,0,.276-.008a.877.877,0,0,0,.031-.156q0-.356,0-.713v-3.7c-.072-.083-.147-.061-.215-.062a.991.991,0,0,0-.831.236L5.014,17.135a.812.812,0,0,1-.661.192H.311A.75.75,0,0,1,0,17.295Z" transform="translate(0 0.015)" fill="#dcb533"/></g></g></g><path d="M-129.815.281h-3.145q-.824,0-.824-.786V-19.261a.364.364,0,0,0-.412-.412h-4.268a.7.7,0,0,1-.786-.786V-23a.7.7,0,0,1,.786-.786h14.151a.7.7,0,0,1,.786.786v2.546a.7.7,0,0,1-.786.786h-4.268q-.449,0-.449.412V-.505A.7.7,0,0,1-129.815.281Zm13.1,0h-3.182a.7.7,0,0,1-.786-.786V-23a.7.7,0,0,1,.786-.786h3.182a.7.7,0,0,1,.786.786v8.8q0,.412.449.412h6.327a.364.364,0,0,0,.412-.412V-23a.7.7,0,0,1,.786-.786h3.182a.7.7,0,0,1,.786.786v22.5a.7.7,0,0,1-.786.786h-3.182a.7.7,0,0,1-.786-.786v-8.76a.364.364,0,0,0-.412-.412h-6.327q-.449,0-.449.412v8.76A.7.7,0,0,1-116.712.281Zm30.623,0H-98.331a.7.7,0,0,1-.786-.786V-23a.7.7,0,0,1,.786-.786h12.242q.749,0,.749.786v2.546q0,.786-.749.786h-7.824q-.449,0-.449.412v4.867q0,.412.449.412h6.4a.7.7,0,0,1,.786.786v2.546a.7.7,0,0,1-.786.786h-6.4q-.449,0-.449.412v5.2q0,.412.449.412h7.824q.749,0,.749.786V-.505Q-85.34.281-86.089.281Zm12.541-6.14v-.749a.7.7,0,0,1,.786-.786h3.182a.7.7,0,0,1,.786.786v.3a2.628,2.628,0,0,0,.562,1.947,3.051,3.051,0,0,0,2.059.524h1.76a2.913,2.913,0,0,0,2.04-.562,2.9,2.9,0,0,0,.58-2.1v-.449a1.877,1.877,0,0,0-.88-1.666,4.637,4.637,0,0,0-2.19-.693,23.668,23.668,0,0,1-2.826-.431,18.28,18.28,0,0,1-2.826-.824,4.435,4.435,0,0,1-2.19-1.984,7.351,7.351,0,0,1-.88-3.8v-1.31a6.044,6.044,0,0,1,1.647-4.53,6.256,6.256,0,0,1,4.567-1.61h3.744a6.31,6.31,0,0,1,4.6,1.61,6.044,6.044,0,0,1,1.647,4.53v.711a.7.7,0,0,1-.786.786h-3.182a.7.7,0,0,1-.786-.786v-.225a2.692,2.692,0,0,0-.562-1.984,3.051,3.051,0,0,0-2.059-.524h-1.46a2.831,2.831,0,0,0-2.078.58,3.417,3.417,0,0,0-.543,2.265v.711q0,1.76,3.07,2.022a19.005,19.005,0,0,1,5.653,1.273,4.794,4.794,0,0,1,2.19,2,6.984,6.984,0,0,1,.88,3.688v1.273a6.044,6.044,0,0,1-1.647,4.53A6.256,6.256,0,0,1-63.252.281h-4.081A6.256,6.256,0,0,1-71.9-1.329,6.044,6.044,0,0,1-73.548-5.859ZM-45.32.281h-3.145q-.824,0-.824-.786V-19.261a.364.364,0,0,0-.412-.412h-4.268a.7.7,0,0,1-.786-.786V-23a.7.7,0,0,1,.786-.786h14.151a.7.7,0,0,1,.786.786v2.546a.7.7,0,0,1-.786.786h-4.268q-.449,0-.449.412V-.505A.7.7,0,0,1-45.32.281Zm15.686-4.118h2.658a2.355,2.355,0,0,0,1.7-.505,2.355,2.355,0,0,0,.505-1.7V-17.464a2.355,2.355,0,0,0-.505-1.7,2.355,2.355,0,0,0-1.7-.505h-2.658a2.284,2.284,0,0,0-1.685.505,2.416,2.416,0,0,0-.487,1.7V-6.046a2.416,2.416,0,0,0,.487,1.7A2.284,2.284,0,0,0-29.634-3.837ZM-26.19.281h-4.193A6.265,6.265,0,0,1-34.95-1.291a6.048,6.048,0,0,1-1.61-4.53V-17.689a6.048,6.048,0,0,1,1.61-4.53,6.265,6.265,0,0,1,4.567-1.572h4.193a6.265,6.265,0,0,1,4.567,1.572,6.048,6.048,0,0,1,1.61,4.53V-5.821a6.048,6.048,0,0,1-1.61,4.53A6.265,6.265,0,0,1-26.19.281Zm14.638,0h-3.182a.7.7,0,0,1-.786-.786V-23a.7.7,0,0,1,.786-.786h8.91a6.256,6.256,0,0,1,4.567,1.61,6.044,6.044,0,0,1,1.647,4.53v2.92q0,4.23-3.332,5.616v.15L1.064-.617q.337.9-.636.9H-2.6a2.32,2.32,0,0,1-.973-.15,1.113,1.113,0,0,1-.487-.636L-7.808-8.592h-2.508q-.449,0-.449.412V-.505A.7.7,0,0,1-11.552.281Zm1.2-12.691h3.669a2.577,2.577,0,0,0,1.76-.505,2.093,2.093,0,0,0,.562-1.629v-2.92a2.212,2.212,0,0,0-.562-1.685,2.513,2.513,0,0,0-1.76-.524h-3.669a.364.364,0,0,0-.412.412v6.439A.364.364,0,0,0-10.354-12.41ZM13.793.281H10.611a.7.7,0,0,1-.786-.786V-8.517L2.974-22.967a.563.563,0,0,1,.019-.58.574.574,0,0,1,.505-.243H7.466q.6,0,.9.786l3.744,9.1h.262L16.039-23q.262-.786.9-.786h3.968a.634.634,0,0,1,.543.225.548.548,0,0,1-.019.6L14.579-8.517V-.505A.7.7,0,0,1,13.793.281ZM37.715-3.687h4.193a2.566,2.566,0,0,0,1.778-.505,2.192,2.192,0,0,0,.543-1.666V-8.03a2.084,2.084,0,0,0-.562-1.647,2.783,2.783,0,0,0-1.834-.487H37.715a.364.364,0,0,0-.412.412V-4.1A.364.364,0,0,0,37.715-3.687Zm0-10.333h3.819a2.577,2.577,0,0,0,1.76-.505,2.147,2.147,0,0,0,.562-1.666v-1.46a2.192,2.192,0,0,0-.543-1.666,2.5,2.5,0,0,0-1.741-.505H37.715a.364.364,0,0,0-.412.412v4.979A.364.364,0,0,0,37.715-14.02ZM32.549-.505V-23a.7.7,0,0,1,.786-.786H42.32a6.265,6.265,0,0,1,4.567,1.572,6,6,0,0,1,1.61,4.492v1.535a3.926,3.926,0,0,1-2.958,4.118,3.894,3.894,0,0,1,2.4,1.217,4.067,4.067,0,0,1,.9,2.826v2.246a6,6,0,0,1-1.61,4.492A6.211,6.211,0,0,1,42.694.281H33.335A.7.7,0,0,1,32.549-.505ZM66.355.281H54.113a.7.7,0,0,1-.786-.786V-23a.7.7,0,0,1,.786-.786H66.355q.749,0,.749.786v2.546q0,.786-.749.786H58.53q-.449,0-.449.412v4.867q0,.412.449.412h6.4a.7.7,0,0,1,.786.786v2.546a.7.7,0,0,1-.786.786h-6.4q-.449,0-.449.412v5.2q0,.412.449.412h7.824q.749,0,.749.786V-.505Q67.1.281,66.355.281Zm8.873,0H72.045a.7.7,0,0,1-.786-.786V-23a.7.7,0,0,1,.786-.786h3.182a.7.7,0,0,1,.786.786v8.8q0,.412.449.412h6.327a.364.364,0,0,0,.412-.412V-23a.7.7,0,0,1,.786-.786h3.182a.7.7,0,0,1,.786.786v22.5a.7.7,0,0,1-.786.786H83.987A.7.7,0,0,1,83.2-.505v-8.76a.364.364,0,0,0-.412-.412H76.462q-.449,0-.449.412v8.76A.7.7,0,0,1,75.227.281ZM97.764-23v22.5a.7.7,0,0,1-.786.786H93.8a.7.7,0,0,1-.786-.786V-23a.7.7,0,0,1,.786-.786h3.182A.7.7,0,0,1,97.764-23ZM106.712.281H103.6a.7.7,0,0,1-.786-.786V-23a.7.7,0,0,1,.786-.786h2.808a1.056,1.056,0,0,1,1.048.524l7.562,14.189h.15V-23a.7.7,0,0,1,.786-.786h3.107a.7.7,0,0,1,.786.786v22.5a.7.7,0,0,1-.786.786h-2.733a1.252,1.252,0,0,1-1.2-.749l-7.487-13.927h-.15V-.505A.7.7,0,0,1,106.712.281Zm23.174-4.118h4.081a2.355,2.355,0,0,0,1.7-.505,2.355,2.355,0,0,0,.505-1.7V-17.464a2.355,2.355,0,0,0-.505-1.7,2.355,2.355,0,0,0-1.7-.505h-4.081a.364.364,0,0,0-.412.412V-4.249A.364.364,0,0,0,129.885-3.837ZM124.719-.505V-23a.7.7,0,0,1,.786-.786h9.247A6.233,6.233,0,0,1,139.3-22.2a6.02,6.02,0,0,1,1.629,4.511V-5.821A6.02,6.02,0,0,1,139.3-1.31,6.233,6.233,0,0,1,134.752.281H125.5A.7.7,0,0,1,124.719-.505Z" transform="translate(2686.25 -276.145)" fill="#fff"/></g></svg>